<?xml version="1.0" encoding="UTF-8"?>
<svg id="Livello_1" data-name="Livello 1" xmlns="http://www.w3.org/2000/svg" version="1.1" viewBox="0 0 108 108">
  <defs>
    <style>
      .cls-1 {
        fill: #fff;
        stroke-width: 0px;
      }
    </style>
  </defs>
  <path class="cls-1" d="M44.94,38.23c-6.47,5-7.66,14.3-2.65,20.76,5,6.47,14.3,7.66,20.76,2.65,6.47-5,7.66-14.3,2.65-20.76-5-6.47-14.3-7.66-20.76-2.65Z"/>
  <path class="cls-1" d="M44.94,38.23c-6.47,5-7.66,14.3-2.65,20.76,5,6.47,14.3,7.66,20.76,2.65,6.47-5,7.66-14.3,2.65-20.76-5-6.47-14.3-7.66-20.76-2.65Z"/>
  <path class="cls-1" d="M94.77,21.7h-15.47s-2.14-5.78-2.14-5.78c-1.92-5.19-6.87-8.63-12.41-8.63h-21.97c-5.52,0-10.46,3.43-12.39,8.6l-2.17,5.81h-15c-7.31,0-13.23,5.92-13.23,13.23v52.55c0,7.31,5.92,13.23,13.23,13.23h81.54c7.31,0,13.23-5.92,13.23-13.23v-52.55c0-7.31-5.92-13.23-13.23-13.23ZM74.41,69.47l-19.15,24.76c-.74.95-2.17.95-2.91,0l-20.89-27.01.08-.15c-9.41-12.33-7.11-29.96,5.18-39.46,12.34-9.54,30.08-7.27,39.62,5.06,8.67,11.21,7.59,26.87-1.93,36.8ZM96.6,39.91c-2.47,1.91-6.01,1.45-7.92-1.01-1.91-2.47-1.45-6.01,1.01-7.92,2.47-1.91,6.01-1.45,7.92,1.01,1.91,2.47,1.45,6.01-1.01,7.92Z"/>
</svg>