<?xml version="1.0" encoding="UTF-8"?>
<svg id="Livello_1" data-name="Livello 1" xmlns="http://www.w3.org/2000/svg" version="1.1" viewBox="0 0 108 108">
  <defs>
    <style>
      .cls-1 {
        fill: #fff;
        stroke-width: 0px;
      }
    </style>
  </defs>
  <path class="cls-1" d="M48.46,41.06c-3.96,3.06-4.69,8.75-1.63,12.71,3.06,3.96,8.75,4.69,12.71,1.63,3.96-3.06,4.69-8.75,1.63-12.71-3.06-3.96-8.75-4.69-12.71-1.63Z"/>
  <path class="cls-1" d="M48.46,41.06c-3.96,3.06-4.69,8.75-1.63,12.71,3.06,3.96,8.75,4.69,12.71,1.63,3.96-3.06,4.69-8.75,1.63-12.71-3.06-3.96-8.75-4.69-12.71-1.63Z"/>
  <path class="cls-1" d="M78.97,30.94h-9.47s-1.31-3.54-1.31-3.54c-1.18-3.18-4.21-5.29-7.6-5.29h-13.45c-3.38,0-6.41,2.1-7.59,5.27l-1.33,3.56h-9.18c-4.47,0-8.1,3.63-8.1,8.1v32.18c0,4.47,3.63,8.1,8.1,8.1h49.93c4.47,0,8.1-3.63,8.1-8.1v-32.18c0-4.47-3.63-8.1-8.1-8.1ZM66.5,60.19l-11.73,15.16c-.45.58-1.33.58-1.78,0l-12.79-16.54.05-.09c-5.76-7.55-4.35-18.35,3.17-24.16,7.56-5.84,18.42-4.45,24.26,3.1,5.31,6.86,4.65,16.45-1.18,22.53ZM80.09,42.09c-1.51,1.17-3.68.89-4.85-.62-1.17-1.51-.89-3.68.62-4.85,1.51-1.17,3.68-.89,4.85.62,1.17,1.51.89,3.68-.62,4.85Z"/>
</svg>