<?xml version="1.0" encoding="UTF-8"?>
<svg id="Livello_1" data-name="Livello 1" xmlns="http://www.w3.org/2000/svg" xmlns:xlink="http://www.w3.org/1999/xlink" version="1.1" viewBox="0 0 108 108">
  <defs>
    <style>
      .cls-1 {
        fill: url(#Sfumatura_senza_nome_19);
      }

      .cls-1, .cls-2 {
        stroke-width: 0px;
      }

      .cls-2 {
        fill: #fff;
      }
    </style>
    <linearGradient id="Sfumatura_senza_nome_19" data-name="Sfumatura senza nome 19" x1="-6902.49" y1="-630.46" x2="-6794.94" y2="-630.46" gradientTransform="translate(-576.24 6902.49) rotate(90)" gradientUnits="userSpaceOnUse">
      <stop offset="0" stop-color="#2faee5"/>
      <stop offset=".19" stop-color="#31aede"/>
      <stop offset=".45" stop-color="#38b0cd"/>
      <stop offset=".75" stop-color="#44b3b1"/>
      <stop offset="1" stop-color="#50b794"/>
    </linearGradient>
  </defs>
  <circle class="cls-1" cx="54.23" cy="53.77" r="53.77"/>
  <g>
    <path class="cls-2" d="M48.68,41.06c-3.96,3.06-4.69,8.75-1.63,12.71,3.06,3.96,8.75,4.69,12.71,1.63,3.96-3.06,4.69-8.75,1.63-12.71-3.06-3.96-8.75-4.69-12.71-1.63Z"/>
    <path class="cls-2" d="M48.68,41.06c-3.96,3.06-4.69,8.75-1.63,12.71,3.06,3.96,8.75,4.69,12.71,1.63,3.96-3.06,4.69-8.75,1.63-12.71-3.06-3.96-8.75-4.69-12.71-1.63Z"/>
    <path class="cls-2" d="M79.19,30.94h-9.47s-1.31-3.54-1.31-3.54c-1.18-3.18-4.21-5.29-7.6-5.29h-13.45c-3.38,0-6.41,2.1-7.59,5.27l-1.33,3.56h-9.18c-4.47,0-8.1,3.63-8.1,8.1v32.18c0,4.47,3.63,8.1,8.1,8.1h49.93c4.47,0,8.1-3.63,8.1-8.1v-32.18c0-4.47-3.63-8.1-8.1-8.1ZM66.73,60.19l-11.73,15.16c-.45.58-1.33.58-1.78,0l-12.79-16.54.05-.09c-5.76-7.55-4.35-18.35,3.17-24.16,7.56-5.84,18.42-4.45,24.26,3.1,5.31,6.86,4.65,16.45-1.18,22.53ZM80.32,42.09c-1.51,1.17-3.68.89-4.85-.62-1.17-1.51-.89-3.68.62-4.85,1.51-1.17,3.68-.89,4.85.62,1.17,1.51.89,3.68-.62,4.85Z"/>
  </g>
</svg>